#!OML:ASF F:\twosubjects\two\Thursday\Session 1\Rory.ASF
:FULLY-SPECIFIED
:DEGREES
404
root 20.1058 16.8574 -16.7668 -179.086 -70.9838 187.638
lowerback 23.1359 0.765521 -1.70762
upperback 8.57303 -0.369825 -2.26761
thorax -3.51715 -0.531266 -1.34825
lowerneck 0.507982 18.5602 9.54286
upperneck -14.1793 23.3662 -24.9751
head 0.0520673 12.2676 -8.2272
rclavicle -4.6118e-014 6.52014e-014
rhumerus -36.2053 -4.7541 -81.4629
rradius 52.5728
rwrist 11.2669
rhand -19.0795 26.5658
rfingers 7.12502
rthumb 7.22841 -3.29074
lclavicle -4.6118e-014 6.52014e-014
lhumerus 7.54381 32.3746 61.1761
lradius 80.4439
lwrist -34.4165
lhand -21.1033 52.32
lfingers 7.12502
lthumb 5.27457 82.2344
rfemur -38.7062 -8.11415 17.398
rtibia 52.6004
rfoot -14.9736 -11.8054
rtoes -21.7713
lfemur -36.5586 2.56415 -7.85979
ltibia 69.0135
lfoot -17.32 3.10412
ltoes 8.62062
405
root 20.0723 16.8671 -16.8501 -179.142 -71.4685 187.863
lowerback 22.9942 0.626988 -1.76135
upperback 8.61291 -0.550764 -2.28339
thorax -3.40552 -0.619241 -1.28902
lowerneck 0.148648 18.6247 9.67073
upperneck -14.0089 23.4675 -25.0626
head 0.204566 12.2862 -8.20101
rclavicle 2.62396e-014 -3.02153e-014
rhumerus -35.7553 -4.50991 -81.5898
rradius 52.2288
rwrist 11.1444
rhand -19.3198 26.3248
rfingers 7.12502
rthumb 6.99641 -3.53954
lclavicle 2.62396e-014 -3.02153e-014
lhumerus 8.17571 32.9131 61.9485
lradius 80.1755
lwrist -34.9821
lhand -21.0705 50.8062
lfingers 7.12502
lthumb 5.30626 80.7198
rfemur -38.7942 -8.89769 17.9406
rtibia 52.8245
rfoot -14.8358 -12.2529
rtoes -25.4356
lfemur -37.6718 3.22427 -8.68828
ltibia 68.8792
lfoot -17.5911 2.9642
ltoes 3.35877
406
root 20.0325 16.8907 -16.9588 -178.931 -71.8306 187.666
lowerback 22.8515 0.750304 -2.36321
upperback 8.68604 -0.508772 -2.18393
thorax -3.24993 -0.611787 -0.850538
lowerneck 0.163419 18.6579 9.76629
upperneck -13.8973 23.536 -25.1701
head 0.273633 12.3187 -8.22534
rclavicle -4.77083e-015 1.11319e-014
rhumerus -35.4404 -4.37043 -81.5811
rradius 51.9885
rwrist 10.854
rhand -19.4701 25.8776
rfingers 7.12502
rthumb 6.85137 -3.99155
lclavicle -4.77083e-015 1.11319e-014
lhumerus 8.68434 32.9446 62.7107
lradius 80.0795
lwrist -35.3388
lhand -21.0786 50.2964
lfingers 7.12502
lthumb 5.2985 80.2102
rfemur -38.5981 -9.33468 18.3602
rtibia 53.0699
rfoot -14.6406 -13.0023
rtoes -29.0534
lfemur -38.2502 3.99943 -9.53256
ltibia 68.3807
lfoot -18.0752 2.66154
ltoes 0.403689
407
root 19.9901 16.8975 -17.0307 -179.093 -72.1936 188.177
lowerback 22.5035 0.709896 -2.12536
upperback 8.6126 -0.479165 -2.22168
thorax -3.15793 -0.58389 -1.03421
lowerneck 0.0941456 18.465 9.59968
upperneck -13.9346 23.2629 -24.8079
head 0.155082 12.1745 -8.14231
rclavicle -5.00937e-014 1.74931e-014
rhumerus -35.4589 -4.3207 -81.5857
rradius 52.0775
rwrist 10.268
rhand -19.6913 25.4722
rfingers 7.12502
rthumb 6.63778 -4.40373
lclavicle -5.00937e-014 1.74931e-014
lhumerus 8.93051 32.412 63.003
lradius 79.8771
lwrist -35.505
lhand -20.8449 50.2374
lfingers 7.12502
lthumb 5.52412 80.1454
rfemur -38.8881 -9.51995 18.6266
rtibia 53.3479
rfoot -14.7024 -12.8241
rtoes -27.5718
lfemur -39.257 4.59309 -10.2634
ltibia 67.8429
lfoot -19.0371 1.82602
ltoes 1.34049
408
root 19.9462 16.9147 -17.1154 -181.201 -72.7031 190.522
lowerback 22.3393 0.641452 -1.47726
upperback 8.58552 -0.403098 -2.08264
thorax -3.10665 -0.530751 -1.27286
lowerneck -0.127996 18.3422 9.80242
upperneck -13.5357 23.1604 -24.6902
head 0.297391 12.0828 -8.09855
rclavicle 1.35174e-014 0
rhumerus -35.5176 -4.53687 -81.4806
rradius 52.1563
rwrist 10.0534
rhand -19.8073 25.3214
rfingers 7.12502
rthumb 6.52586 -4.55807
lclavicle 1.35174e-014 0
lhumerus 8.90982 31.462 62.9313
lradius 79.764
lwrist -35.4459
lhand -20.5663 50.6118
lfingers 7.12502
lthumb 5.79306 80.5126
rfemur -38.9169 -9.52703 19.3811
rtibia 53.5967
rfoot -15.027 -12.6966
rtoes -27.2762
lfemur -40.0783 5.19937 -10.4181
ltibia 67.1692
lfoot -19.7517 1.12515
ltoes -0.284435
409
root 19.9128 16.9341 -17.1952 -181.758 -73.1714 191.109
lowerback 22.36 0.608564 -1.60174
upperback 8.57517 -0.457178 -1.94253
thorax -3.1274 -0.558518 -1.03858
lowerneck -0.206549 18.2912 9.4033
upperneck -13.4633 23.0877 -24.3911
head 0.225427 12.0462 -7.97123
rclavicle -3.97569e-015 1.66979e-014
rhumerus -35.3831 -4.65926 -81.1609
rradius 52.0873
rwrist 10.3116
rhand -19.676 25.4021
rfingers 7.12502
rthumb 6.65263 -4.47343
lclavicle -3.97569e-015 1.66979e-014
lhumerus 9.00293 31.2782 63.329
lradius 79.6568
lwrist -35.7316
lhand -20.0387 50.9043
lfingers 7.12502
lthumb 6.30245 80.7906
rfemur -38.6032 -9.42466 19.2796
rtibia 54.0985
rfoot -16.7842 -11.0039
rtoes -21.2473
lfemur -40.7929 6.00371 -11.2282
ltibia 66.3663
lfoot -20.0278 -0.366193
ltoes 0.437243
410
root 19.8784 16.9292 -17.263 -179.824 -73.5697 188.983
lowerback 22.521 0.644695 -2.3621
upperback 8.58938 -0.590576 -2.11359
thorax -3.18921 -0.636722 -0.75631
lowerneck -0.210716 18.2723 9.21591
upperneck -13.5328 23.0578 -24.0489
head 0.12741 12.0314 -7.86703
rclavicle -5.32743e-014 -3.73715e-014
rhumerus -35.2114 -4.73715 -81.0558
rradius 52.0331
rwrist 10.3516
rhand -19.9514 25.4688
rfingers 7.12502
rthumb 6.38674 -4.41495
lclavicle -5.32743e-014 -3.73715e-014
lhumerus 9.83119 31.8578 64.3468
lradius 79.0564
lwrist -36.5079
lhand -19.405 50.0987
lfingers 7.12502
lthumb 6.91418 79.9658
rfemur -38.5711 -10.0567 18.65
rtibia 54.6996
rfoot -16.5119 -10.3601
rtoes -22.3964
lfemur -41.1891 5.39776 -12.7285
ltibia 65.3879
lfoot -20.5871 0.52631
ltoes -0.0775894
411
root 19.842 16.9556 -17.3297 -179.194 -74.1042 188.25
lowerback 22.7609 0.622019 -2.70703
upperback 8.60602 -0.710948 -2.18328
thorax -3.28754 -0.701615 -0.604282
lowerneck -0.3596 18.2376 9.67633
upperneck -13.257 23.0639 -24.1714
head 0.306778 12.0008 -7.91735
rclavicle -1.03368e-014 1.27222e-014
rhumerus -35.0353 -4.67187 -81.0582
rradius 51.9857
rwrist 10.1526
rhand -20.1383 25.6415
rfingers 7.12502
rthumb 6.20628 -4.24755
lclavicle -1.03368e-014 1.27222e-014
lhumerus 9.57242 31.1809 63.8212
lradius 79.157
lwrist -35.7382
lhand -19.4311 50.0824
lfingers 7.12502
lthumb 6.88896 79.9503
rfemur -38.5012 -10.5323 18.3487
rtibia 55.3253
rfoot -16.6031 -9.41216
rtoes -18.796
lfemur -41.4969 5.36116 -13.8954
ltibia 64.0426
lfoot -21.0301 0.681342
ltoes -2.00448
412
root 19.8079 17.0014 -17.4128 -178.42 -74.5426 186.797
lowerback 23.5989 0.762552 -3.65387
upperback 8.73065 -0.801274 -2.09772
thorax -3.55268 -0.773935 0.0533537
lowerneck -0.315137 18.211 9.76373
upperneck -13.2603 23.0198 -24.4305
head 0.341355 11.9864 -8.00701
rclavicle 1.27222e-014 2.78299e-014
rhumerus -34.8728 -4.30188 -80.8987
rradius 52.0438
rwrist 10.084
rhand -19.7929 25.6388
rfingers 7.12502
rthumb 6.53977 -4.24021
lclavicle 1.27222e-014 2.78299e-014
lhumerus 9.94721 31.7459 64.8881
lradius 79.1586
lwrist -36.1413
lhand -19.2286 49.3664
lfingers 7.12502
lthumb 7.08446 79.2278
rfemur -37.7649 -10.4667 17.7817
rtibia 55.9235
rfoot -16.6031 -9.28493
rtoes -16.8939
lfemur -41.0373 5.48579 -15.0787
ltibia 62.5896
lfoot -21.3669 0.0679023
ltoes 0.224901
413
root 19.7608 17.055 -17.524 -179.858 -74.8507 187.125
lowerback 24.627 1.1099 -4.42738
upperback 9.00427 -0.616877 -1.78363
thorax -3.74951 -0.72378 0.789098
lowerneck -0.199161 18.1003 9.2701
upperneck -13.3755 22.8384 -24.172
head 0.162631 11.9202 -7.92525
rclavicle 7.15625e-015 4.21423e-014
rhumerus -34.9516 -4.24429 -80.5862
rradius 52.4408
rwrist 10.0065
rhand -19.9598 24.8108
rfingers 7.12502
rthumb 6.37859 -5.07315
lclavicle 7.15625e-015 4.21423e-014
lhumerus 9.64096 30.9438 64.7163
lradius 78.8928
lwrist -35.358
lhand -18.7369 49.5809
lfingers 7.12502
lthumb 7.55909 79.4258
rfemur -36.3105 -10.1251 17.8171
rtibia 56.4405
rfoot -16.3464 -9.78273
rtoes -17.434
lfemur -39.7367 5.78125 -15.5078
ltibia 60.8879
lfoot -21.2952 -0.550769
ltoes 4.05378
414
root 19.7234 17.0186 -17.5106 -184.382 -75.6278 193.476
lowerback 22.8839 0.297695 -1.9604
upperback 8.7257 -0.927151 -1.57849
thorax -3.21769 -0.801232 -0.326511
lowerneck -0.248221 18.0211 9.21905
upperneck -13.3796 22.7313 -24.0042
head 0.122232 11.8611 -7.88326
rclavicle -2.14687e-014 8.90555e-014
rhumerus -34.9349 -4.60152 -80.3606
rradius 52.8745
rwrist 10.1395
rhand -20.4736 24.1712
rfingers 7.12502
rthumb 5.88256 -5.72713
lclavicle -2.14687e-014 8.90555e-014
lhumerus 9.93395 30.7193 65.2952
lradius 78.766
lwrist -35.4241
lhand -17.8941 48.9057
lfingers 7.12502
lthumb 8.37251 78.7197
rfemur -38.5963 -11.2255 19.7155
rtibia 57.2265
rfoot -15.0622 -9.31415
rtoes -18.2198
lfemur -42.3932 5.3333 -15.079
ltibia 59.5924
lfoot -20.4647 0.480163
ltoes 2.41792
415
root 19.6854 17.0227 -17.5708 -181.277 -75.6876 190.201
lowerback 22.9639 0.569627 -3.21856
upperback 8.80244 -0.872783 -1.76633
thorax -3.15911 -0.801439 0.173858
lowerneck -0.270148 17.996 9.64986
upperneck -13.5596 22.6824 -24.1811
head 0.144716 11.8299 -7.99427
rclavicle 1.74931e-014 -1.59028e-015
rhumerus -34.7721 -5.29099 -80.2347
rradius 53.134
rwrist 10.5178
rhand -20.5436 24.6388
rfingers 7.12502
rthumb 5.81497 -5.26145
lclavicle 1.74931e-014 -1.59028e-015
lhumerus 10.1613 30.78 65.7992
lradius 78.8838
lwrist -35.566
lhand -17.3084 48.4578
lfingers 7.12502
lthumb 8.93771 78.2485
rfemur -39.094 -11.422 19.0719
rtibia 58.1141
rfoot -13.3438 -9.85357
rtoes -24.9232
lfemur -42.3336 5.67295 -16.6651
ltibia 57.9134
lfoot -20.2393 0.388701
ltoes 5.88723
